<?xml version="1.0" encoding="UTF-8"?>
<svg id="b" data-name="Layer 2" xmlns="http://www.w3.org/2000/svg" viewBox="0 0 175.8 183">
  <g id="c" data-name="Lager 1">
    <g>
      <path d="M87.9,44.8c-.9,0-1.7-.1-2.6-.2v20.5c.8-.1,1.7-.1,2.6-.1s1.7,0,2.6,.1v-20.4c-.9,.1-1.7,.1-2.6,.1Z" style="fill: #fff;"/>
      <path d="M87.9,47.4c-13.1,0-23.7-10.6-23.7-23.7S74.8,0,87.9,0s23.7,10.6,23.7,23.7-10.6,23.7-23.7,23.7Zm0-42.2c-10.2,0-18.6,8.3-18.6,18.6s8.3,18.6,18.6,18.6,18.6-8.3,18.6-18.6-8.4-18.6-18.6-18.6Z" style="fill: #fff;"/>
      <path d="M87.9,138.2c.9,0,1.7,.1,2.6,.2v-18.6c-.8,.1-1.7,.1-2.6,.1s-1.7,0-2.6-.1v18.6c.9-.2,1.7-.2,2.6-.2Z" style="fill: #fff;"/>
      <path d="M87.9,183c-13.1,0-23.7-10.6-23.7-23.7s10.6-23.7,23.7-23.7,23.7,10.6,23.7,23.7-10.6,23.7-23.7,23.7Zm0-42.3c-10.2,0-18.6,8.3-18.6,18.6s8.3,18.6,18.6,18.6,18.6-8.3,18.6-18.6-8.4-18.6-18.6-18.6Z" style="fill: #fff;"/>
      <path d="M132.6,60.8l-24,13.8c1.1,1.3,2.1,2.7,3,4.2l23.6-13.6c-1-1.3-1.9-2.8-2.6-4.4Z" style="fill: #fff;"/>
      <path d="M152.1,76.2c-13.1,0-23.7-10.6-23.7-23.7s10.6-23.7,23.7-23.7,23.7,10.6,23.7,23.7-10.7,23.7-23.7,23.7Zm0-42.2c-10.2,0-18.6,8.3-18.6,18.6s8.3,18.6,18.6,18.6,18.6-8.3,18.6-18.6-8.4-18.6-18.6-18.6Z" style="fill: #fff;"/>
      <path d="M135.5,114.1l-24.4-14c-.6,1.6-1.3,3.2-2.2,4.7l23.9,13.7c.7-1.6,1.6-3.1,2.7-4.4Z" style="fill: #fff;"/>
      <path d="M152.1,150.8c-13.1,0-23.7-10.6-23.7-23.7s10.6-23.7,23.7-23.7,23.7,10.6,23.7,23.7-10.7,23.7-23.7,23.7Zm0-42.2c-10.2,0-18.6,8.3-18.6,18.6s8.3,18.6,18.6,18.6,18.6-8.3,18.6-18.6-8.4-18.6-18.6-18.6Z" style="fill: #fff;"/>
      <path d="M43.2,60.8c-.7,1.6-1.6,3.1-2.6,4.4l23.5,13.7c.9-1.5,1.9-2.9,3-4.2l-23.9-13.9Z" style="fill: #fff;"/>
      <path d="M23.7,76.2c-13.1,0-23.7-10.6-23.7-23.7S10.6,28.8,23.7,28.8s23.7,10.6,23.7,23.7-10.6,23.7-23.7,23.7Zm0-42.2c-10.2,0-18.6,8.3-18.6,18.6s8.3,18.6,18.6,18.6,18.6-8.3,18.6-18.6-8.4-18.6-18.6-18.6Z" style="fill: #fff;"/>
      <path d="M43,118.5l22.3-12.7c-.9-1.5-1.6-3-2.2-4.7l-22.8,13c1.1,1.3,2,2.8,2.7,4.4Z" style="fill: #fff;"/>
      <path d="M23.7,150.8c-13.1,0-23.7-10.6-23.7-23.7s10.6-23.7,23.7-23.7,23.7,10.6,23.7,23.7-10.6,23.7-23.7,23.7Zm0-42.2c-10.2,0-18.6,8.3-18.6,18.6s8.3,18.6,18.6,18.6,18.6-8.3,18.6-18.6-8.4-18.6-18.6-18.6Z" style="fill: #fff;"/>
      <g>
        <path d="M45.4,43l20.1-11.6c-.6-1.7-1-3.4-1.2-5.3l-21.5,12.4c1,1.4,1.9,2.9,2.6,4.5Z" style="fill: #fff;"/>
        <path d="M152.1,76.2c-.9,0-1.7-.1-2.6-.1v27.5c.8-.1,1.7-.1,2.6-.1s1.7,.1,2.6,.1v-27.5c-.9,.1-1.8,.1-2.6,.1Z" style="fill: #fff;"/>
        <path d="M110.3,31.4l20.1,11.6c.7-1.6,1.6-3.1,2.6-4.4l-21.5-12.4c-.2,1.8-.6,3.5-1.2,5.2Z" style="fill: #fff;"/>
        <path d="M130.2,136.3l-21.2,12.2c.8,1.5,1.4,3.2,1.8,4.9l21.9-12.6c-1-1.4-1.8-2.9-2.5-4.5Z" style="fill: #fff;"/>
        <path d="M66.8,148.6l-21.2-12.2c-.7,1.6-1.5,3.1-2.5,4.5l21.9,12.6c.4-1.8,1-3.4,1.8-4.9Z" style="fill: #fff;"/>
        <path d="M23.7,103.4c.9,0,1.7,.1,2.6,.1v-27.4c-.8,.1-1.7,.1-2.6,.1s-1.7-.1-2.6-.1v27.5c.9-.1,1.7-.2,2.6-.2Z" style="fill: #fff;"/>
      </g>
      <path d="M113.8,72.1l-25.5-11.2c-.3-.1-.6-.1-.8,0l-25.5,11.2c-.4,.2-.6,.5-.6,.9v18.5c0,12.2,7,23.2,18,28.5l8.1,3.9c.3,.1,.6,.1,.9,0l8.1-3.9c10.9-5.3,17.9-16.4,18-28.5v-18.4c-.1-.4-.3-.8-.7-1Zm-6.2,19.6c0,9.3-5.4,17.8-13.7,21.8l-5.6,2.7c-.2,.1-.5,.1-.8,0l-5.6-2.7c-8.4-4.1-13.7-12.5-13.7-21.8v-13.9c0-.4,.2-.7,.5-.8l18.8-8.3c.2-.1,.5-.1,.7,0l18.8,8.3c.3,.1,.5,.5,.5,.8v13.9h.1Z" style="fill: #fff;"/>
      <path d="M107.1,76.9c.3,.1,.5,.5,.5,.8v13.9c0,9.3-5.4,17.8-13.7,21.8l-5.6,2.7v7.8h0l8.1-3.9c10.9-5.3,17.9-16.4,18-28.5v-18.4c0-.4-.2-.8-.6-.9l-25.5-11.2v7.8l18.8,8.1Z" style="fill: #fff;"/>
    </g>
  </g>
</svg>