<?xml version="1.0" encoding="utf-8"?>
<!-- Generator: Adobe Illustrator 26.0.3, SVG Export Plug-In . SVG Version: 6.00 Build 0)  -->
<svg version="1.1" id="Lager_1" xmlns="http://www.w3.org/2000/svg" xmlns:xlink="http://www.w3.org/1999/xlink" x="0px" y="0px"
	 viewBox="0 0 454.7 334.7" style="enable-background:new 0 0 454.7 334.7;" xml:space="preserve">
<style type="text/css">
	.st0{fill:#FFFFFF;}
	.st1{fill:#96DEFF;}
	.st2{fill:#4DB2E5;}
</style>
<g>
	<path class="st0" d="M33,278.7c-3.8,0-8-0.4-12.7-1.2c-4.6-0.8-8-1.6-10.1-2.5l3.1-8.3c2.2,0.8,5.9,1.6,11.1,2.5
		c5.2,0.8,9.3,1,12.2,0.4c1.1-0.2,2-0.7,2.8-1.6c0.8-0.9,1.3-1.9,1.5-3.1c0.4-3.2-1.7-5.8-6.2-7.9c-2.2-1.1-6.1-2.7-11.5-5
		c-0.7-0.3-1.4-0.6-2.1-0.9c-0.7-0.3-1.4-0.6-2.1-0.9c-0.7-0.3-1.1-0.5-1.4-0.6c-3.2-1.4-5.7-3.5-7.6-6.2c-1.7-2.6-2.5-5.5-2.5-8.4
		c0.1-2.9,1-5.5,2.6-7.7c1.6-2.3,3.9-4.1,6.9-5.2c3.6-1.5,9-1.6,16.2-0.3c4.2,0.8,8.2,1.9,12,3.3l-3.1,8.3c-2.8-1.1-6.3-2-10.6-2.8
		c-5.2-1-9-1.1-11.3-0.3c-2.5,0.9-3.8,2.6-3.9,5c-0.1,2.7,1.5,4.8,4.8,6.3c0.4,0.1,2.2,0.9,5.5,2.3c0.8,0.4,2.7,1.2,5.7,2.5
		c3,1.3,5,2.2,6.1,2.7c4,1.9,7,4.4,9,7.5c1.9,3,2.6,6.2,2.1,9.6c-0.4,3-1.7,5.7-3.8,7.9c-2.1,2.2-4.7,3.6-7.6,4.1
		C36.4,278.6,34.7,278.7,33,278.7z"/>
	<path class="st0" d="M99.5,226.8c3.9,3.6,5.9,8.1,5.9,13.6c0,5.5-2,10.1-5.9,13.7c-1.9,1.7-3.9,3-6.1,3.8c-2.3,0.8-4.6,1.2-6.9,1.2
		H71.2v18.8h-8.8v-56.3h24.1c2.4,0,4.7,0.4,6.9,1.3C95.8,223.9,97.8,225.1,99.5,226.8z M86.5,250.3c2.6,0,5-0.9,7-2.7
		c2.1-1.8,3.1-4.2,3.1-7.3c0-3-1-5.5-3.1-7.3c-2.1-1.8-4.4-2.7-7-2.7H71.2v19.9H86.5z"/>
	<path class="st0" d="M150.4,277.9c-0.2-3.6-1.3-6.8-3.3-9.5c-2-2.7-5.1-5.8-9.3-9.3h-12.1v18.8h-8.8v-56.2h6.1h2.7H141
		c2.3,0,4.7,0.4,7,1.2c2.3,0.9,4.3,2.2,6,3.8c3.9,3.6,5.9,8.2,5.9,13.6c0,5.5-2,10.1-5.9,13.6c-1.2,1.2-2.8,2.3-4.8,3.3
		c1.8,1.8,3.2,3.3,4.2,4.7c3.6,4.6,5.5,9.8,5.8,15.5v0.4H150.4z M125.7,250.3H141c2.6,0,5-0.9,7-2.7c2.1-1.8,3.1-4.2,3.1-7.3
		c0-3-1-5.5-3-7.2c-2-1.8-4.4-2.6-7.1-2.6h-15.3V250.3z"/>
	<path class="st0" d="M181.6,277.9h-8.8v-56.2h8.8V277.9z"/>
	<path class="st0" d="M230.6,221.7h8.8v56.3h-9.8l-24.1-40.7v40.7h-8.8v-56.3h4.8h0.1h4.9l24.1,40.8V221.7z"/>
	<path class="st0" d="M277.2,246.3l21.6,31.6h-10.6L270.4,252c-4.4,4-6.8,7.8-7.1,11.5v14.3h-8.8v-56.3h8.8v25
		c1.4-1.3,3.6-3.2,6.5-5.6c2.2-1.8,3.9-3.3,5.1-4.3c1.1-1.1,2.5-2.4,4-4.1c1.5-1.7,2.7-3.4,3.4-5.2c0.7-1.8,1.2-3.7,1.3-5.7h8.9
		c-0.2,5.5-2.2,10.5-5.8,15.3C284.5,239.6,281.4,242.8,277.2,246.3z"/>
	<path class="st0" d="M319.4,269.1h23.8v8.8h-32.6v-56.2h8.8V269.1z"/>
	<path class="st0" d="M365.3,269h23.8v8.8h-32.6v-56.2h30.6v8.8h-21.8v13h20.2v8.8h-20.2V269z"/>
	<path class="st0" d="M435.2,277.9c-0.2-3.6-1.3-6.8-3.3-9.5c-2-2.7-5.1-5.8-9.3-9.3h-12.1v18.8h-8.8v-56.2h6.1h2.7h15.3
		c2.3,0,4.7,0.4,7,1.2c2.3,0.9,4.3,2.2,6,3.8c3.9,3.6,5.9,8.2,5.9,13.6c0,5.5-2,10.1-5.9,13.6c-1.2,1.2-2.8,2.3-4.8,3.3
		c1.8,1.8,3.2,3.3,4.2,4.7c3.6,4.6,5.5,9.8,5.8,15.5v0.4H435.2z M410.4,250.3h15.3c2.6,0,5-0.9,7-2.7c2.1-1.8,3.1-4.2,3.1-7.3
		c0-3-1-5.5-3-7.2c-2-1.8-4.4-2.6-7.1-2.6h-15.3V250.3z"/>
</g>
<g>
	<path class="st1" d="M66.3,298.2h4.3c4.2,0,6.2,0.7,7.8,2.1c1.9,1.6,2.9,4.2,2.9,7.5c0,3.2-1,5.7-2.9,7.3c-1.6,1.4-3.6,2.1-7.9,2.1
		h-4.3V298.2z M70.3,315.1c3.7,0,5.2-0.6,6.5-1.8c1.4-1.2,2.1-3.1,2.1-5.6c0-2.5-0.7-4.4-2.1-5.7c-1.3-1.2-2.7-1.8-6.3-1.8h-1.9
		v14.8H70.3z"/>
	<path class="st1" d="M87,298.2h2.4v19H87V298.2z"/>
	<path class="st1" d="M112.2,307.2v10h-2.1v-2.1h-0.2c-1.1,1.2-3.2,2.3-6,2.3c-5.3,0-8.7-3.7-8.7-9.8c0-6,3.3-9.7,8.8-9.7
		c4,0,6.8,1.9,8,5.3l-2.2,0.8c-0.9-2.6-2.9-4-5.8-4c-4,0-6.4,2.8-6.4,7.6c0,4.6,2.3,7.7,6.6,7.7c3.9,0,5.8-2.4,5.9-6h-5.2v-2.1
		H112.2z"/>
	<path class="st1" d="M118.5,298.2h2.4v19h-2.4V298.2z"/>
	<path class="st1" d="M132.2,300.3h-6.4v-2.1H141v2.1h-6.4v16.9h-2.4V300.3z"/>
	<path class="st1" d="M152.8,312.8h-8.2l-1.5,4.4h-2.6l6.8-19h2.7l6.8,19h-2.6L152.8,312.8z M152.1,310.7l-3.3-9.7h-0.2l-3.3,9.7
		H152.1z"/>
	<path class="st1" d="M161.8,298.2h2.4v16.9h8.5v2.1h-10.9V298.2z"/>
	<path class="st1" d="M184,312l2.3-0.6c0.3,2.5,2.1,3.8,4.4,3.8c2.4,0,3.8-1.4,3.8-3.3c0-4.9-9.5-3.1-9.5-9.1c0-3.1,2.5-5,5.6-5
		c2.3,0,4.3,1,5.5,3.1l-2,1.2c-0.8-1.5-2-2.3-3.6-2.3c-1.8,0-3.1,1.2-3.1,2.8c0,4.2,9.5,2.4,9.5,9c0,3.3-2.5,5.6-6.1,5.6
		C187.4,317.4,184.5,315.5,184,312z"/>
	<path class="st1" d="M202.4,298.2h11.9v2.1h-9.6v6.3h8.7v2.1h-8.7v6.4h10.1v2.1h-12.5V298.2z"/>
	<path class="st1" d="M220.3,298.2h2.4v16.9h8.5v2.1h-10.9V298.2z"/>
	<path class="st1" d="M236.1,298.2h12.1v2.1h-9.8v6.3h8.5v2.1h-8.5v8.5h-2.4V298.2z"/>
	<path class="st1" d="M261.5,298.2h4.3c4.2,0,6.2,0.7,7.8,2.1c1.9,1.6,2.9,4.2,2.9,7.5c0,3.2-1,5.7-2.9,7.3
		c-1.6,1.4-3.6,2.1-7.9,2.1h-4.3V298.2z M265.6,315.1c3.7,0,5.2-0.6,6.5-1.8c1.4-1.2,2.1-3.1,2.1-5.6c0-2.5-0.7-4.4-2.1-5.7
		c-1.3-1.2-2.7-1.8-6.3-1.8h-1.9v14.8H265.6z"/>
	<path class="st1" d="M282.3,298.2h11.9v2.1h-9.6v6.3h8.7v2.1h-8.7v6.4h10.1v2.1h-12.5V298.2z"/>
	<path class="st1" d="M300.3,298.2h12.1v2.1h-9.8v6.3h8.5v2.1h-8.5v8.5h-2.4V298.2z"/>
	<path class="st1" d="M317.5,298.2h11.9v2.1h-9.6v6.3h8.7v2.1h-8.7v6.4H330v2.1h-12.5V298.2z"/>
	<path class="st1" d="M335.5,298.2h3.5l8.3,16h0.2v-16h2.4v19h-3.6l-8.2-16h-0.2v16h-2.4V298.2z"/>
	<path class="st1" d="M355.2,312l2.3-0.6c0.3,2.5,2.1,3.8,4.4,3.8c2.4,0,3.8-1.4,3.8-3.3c0-4.9-9.5-3.1-9.5-9.1c0-3.1,2.5-5,5.6-5
		c2.3,0,4.3,1,5.5,3.1l-2,1.2c-0.8-1.5-2-2.3-3.6-2.3c-1.8,0-3.1,1.2-3.1,2.8c0,4.2,9.5,2.4,9.5,9c0,3.3-2.5,5.6-6.1,5.6
		C358.6,317.4,355.7,315.5,355.2,312z"/>
	<path class="st1" d="M373.6,298.2h11.9v2.1h-9.6v6.3h8.7v2.1h-8.7v6.4h10.1v2.1h-12.5V298.2z"/>
</g>
<g>
	<path class="st1" d="M226.2,58.5c-0.9,0-1.7-0.1-2.6-0.2v20.5c0.8-0.1,1.7-0.1,2.6-0.1c0.9,0,1.7,0,2.6,0.1V58.3
		C227.9,58.4,227,58.5,226.2,58.5z"/>
	<path class="st1" d="M226.2,61.1c-13.1,0-23.7-10.6-23.7-23.7s10.6-23.7,23.7-23.7s23.7,10.6,23.7,23.7S239.2,61.1,226.2,61.1z
		 M226.2,18.8c-10.2,0-18.6,8.3-18.6,18.6s8.3,18.6,18.6,18.6s18.6-8.3,18.6-18.6S236.4,18.8,226.2,18.8z"/>
	<path class="st1" d="M226.2,151.8c0.9,0,1.7,0.1,2.6,0.2v-18.6c-0.8,0.1-1.7,0.1-2.6,0.1c-0.9,0-1.7,0-2.6-0.1V152
		C224.4,151.9,225.3,151.8,226.2,151.8z"/>
	<path class="st1" d="M226.2,196.7c-13.1,0-23.7-10.6-23.7-23.7s10.6-23.7,23.7-23.7s23.7,10.6,23.7,23.7S239.2,196.7,226.2,196.7z
		 M226.2,154.4c-10.2,0-18.6,8.3-18.6,18.6s8.3,18.6,18.6,18.6s18.6-8.3,18.6-18.6S236.4,154.4,226.2,154.4z"/>
	<path class="st1" d="M270.9,74.5l-24,13.8c1.1,1.3,2.1,2.7,3,4.2l23.6-13.6C272.5,77.6,271.6,76.1,270.9,74.5z"/>
	<path class="st1" d="M290.3,89.9c-13.1,0-23.7-10.6-23.7-23.7s10.6-23.7,23.7-23.7c13.1,0,23.7,10.6,23.7,23.7
		S303.4,89.9,290.3,89.9z M290.3,47.7c-10.2,0-18.6,8.3-18.6,18.6s8.3,18.6,18.6,18.6s18.6-8.3,18.6-18.6S300.6,47.7,290.3,47.7z"/>
	<path class="st1" d="M273.7,127.8l-24.4-14c-0.6,1.6-1.3,3.2-2.2,4.7l23.9,13.7C271.8,130.6,272.7,129.1,273.7,127.8z"/>
	<path class="st1" d="M290.3,164.5c-13.1,0-23.7-10.6-23.7-23.7s10.6-23.7,23.7-23.7c13.1,0,23.7,10.6,23.7,23.7
		S303.4,164.5,290.3,164.5z M290.3,122.2c-10.2,0-18.6,8.3-18.6,18.6s8.3,18.6,18.6,18.6s18.6-8.3,18.6-18.6
		S300.6,122.2,290.3,122.2z"/>
	<path class="st1" d="M181.4,74.5c-0.7,1.6-1.6,3.1-2.6,4.4l23.6,13.6c0.9-1.5,1.9-2.9,3-4.2L181.4,74.5z"/>
	<path class="st1" d="M162,89.9c-13.1,0-23.7-10.6-23.7-23.7s10.6-23.7,23.7-23.7s23.7,10.6,23.7,23.7S175,89.9,162,89.9z M162,47.7
		c-10.2,0-18.6,8.3-18.6,18.6s8.3,18.6,18.6,18.6s18.6-8.3,18.6-18.6S172.2,47.7,162,47.7z"/>
	<path class="st1" d="M181.3,132.2l22.3-12.7c-0.9-1.5-1.6-3-2.2-4.7l-22.8,13C179.7,129.1,180.5,130.6,181.3,132.2z"/>
	<path class="st1" d="M162,164.5c-13.1,0-23.7-10.6-23.7-23.7s10.6-23.7,23.7-23.7s23.7,10.6,23.7,23.7S175,164.5,162,164.5z
		 M162,122.2c-10.2,0-18.6,8.3-18.6,18.6s8.3,18.6,18.6,18.6s18.6-8.3,18.6-18.6S172.2,122.2,162,122.2z"/>
	<g>
		<path class="st1" d="M183.7,56.7l20.1-11.6c-0.6-1.7-1-3.4-1.2-5.3l-21.5,12.4C182.1,53.6,183,55.1,183.7,56.7z"/>
		<path class="st1" d="M290.3,89.9c-0.9,0-1.7-0.1-2.6-0.1v27.5c0.8-0.1,1.7-0.1,2.6-0.1s1.7,0.1,2.6,0.1V89.8
			C292.1,89.9,291.2,89.9,290.3,89.9z"/>
		<path class="st1" d="M248.6,45.1l20.1,11.6c0.7-1.6,1.6-3.1,2.6-4.4l-21.5-12.4C249.6,41.6,249.2,43.4,248.6,45.1z"/>
		<path class="st1" d="M268.5,150l-21.2,12.2c0.8,1.5,1.4,3.2,1.8,4.9l21.9-12.6C270,153.1,269.2,151.6,268.5,150z"/>
		<path class="st1" d="M205,162.2L183.8,150c-0.7,1.6-1.5,3.1-2.5,4.5l21.9,12.6C203.6,165.4,204.3,163.8,205,162.2z"/>
		<path class="st1" d="M162,117.1c0.9,0,1.7,0.1,2.6,0.1V89.8c-0.8,0.1-1.7,0.1-2.6,0.1s-1.7-0.1-2.6-0.1v27.5
			C160.3,117.1,161.1,117.1,162,117.1z"/>
	</g>
	<g>
		<path class="st1" d="M252.1,85.8l-25.5-11.2c-0.3-0.1-0.6-0.1-0.8,0l-25.5,11.2c-0.4,0.2-0.6,0.5-0.6,0.9v18.5
			c0,12.2,7,23.2,18,28.5l8.1,3.9c0.3,0.1,0.6,0.1,0.9,0l8.1-3.9c10.9-5.3,17.9-16.4,18-28.5V86.7C252.7,86.3,252.5,86,252.1,85.8z
			 M245.9,105.3c0,9.3-5.4,17.8-13.7,21.8l-5.6,2.7c-0.2,0.1-0.5,0.1-0.8,0l-5.6-2.7c-8.4-4.1-13.7-12.5-13.7-21.8V91.4
			c0-0.4,0.2-0.7,0.5-0.8l18.8-8.3c0.2-0.1,0.5-0.1,0.7,0l18.8,8.3c0.3,0.1,0.5,0.5,0.5,0.8V105.3z"/>
	</g>
	<path class="st2" d="M245.4,90.6c0.3,0.1,0.5,0.5,0.5,0.8v13.9c0,9.3-5.4,17.8-13.7,21.8l-5.6,2.7v7.8c0,0,0,0,0,0l8.1-3.9
		c10.9-5.3,17.9-16.4,18-28.5V86.7c0-0.4-0.2-0.8-0.6-0.9l-25.5-11.2v7.8L245.4,90.6z"/>
</g>
</svg>
