<?xml version="1.0" encoding="utf-8"?>
<!-- Generator: Adobe Illustrator 26.3.1, SVG Export Plug-In . SVG Version: 6.00 Build 0)  -->
<svg version="1.1" id="Lager_1" xmlns="http://www.w3.org/2000/svg" xmlns:xlink="http://www.w3.org/1999/xlink" x="0px" y="0px"
	 viewBox="0 0 464.2 334" style="enable-background:new 0 0 464.2 334;" xml:space="preserve">
<style type="text/css">
	.st0{fill:#2F93C2;}
	.st1{fill:#4DB2E5;}
	.st2{fill:#FFFFFF;}
</style>
<g>
	<path class="st0" d="M37.6,278c-3.8,0-8-0.4-12.7-1.2c-4.6-0.8-8-1.6-10.1-2.5l3.1-8.3c2.2,0.8,5.9,1.6,11.1,2.5
		c5.2,0.8,9.3,1,12.2,0.4c1.1-0.2,2-0.7,2.8-1.6s1.3-1.9,1.5-3.1c0.4-3.2-1.7-5.8-6.2-7.9c-2.2-1.1-6.1-2.7-11.5-5
		c-0.7-0.3-1.4-0.6-2.1-0.9c-0.7-0.3-1.4-0.6-2.1-0.9c-0.7-0.3-1.1-0.5-1.4-0.6c-3.2-1.4-5.7-3.5-7.6-6.2c-1.7-2.6-2.5-5.5-2.5-8.4
		c0.1-2.9,1-5.5,2.6-7.7c1.6-2.3,3.9-4.1,6.9-5.2c3.6-1.5,9-1.6,16.2-0.3c4.2,0.8,8.2,1.9,12,3.3l-3.1,8.3c-2.8-1.1-6.3-2-10.6-2.8
		c-5.2-1-9-1.1-11.3-0.3c-2.5,0.9-3.8,2.6-3.9,5c-0.1,2.7,1.5,4.8,4.8,6.3c0.4,0.1,2.2,0.9,5.5,2.3c0.8,0.4,2.7,1.2,5.7,2.5
		s5,2.2,6.1,2.7c4,1.9,7,4.4,9,7.5c1.9,3,2.6,6.2,2.1,9.6c-0.4,3-1.7,5.7-3.8,7.9c-2.1,2.2-4.7,3.6-7.6,4.1
		C41.1,277.9,39.3,278,37.6,278z"/>
	<path class="st0" d="M104.2,226.1c3.9,3.6,5.9,8.1,5.9,13.6s-2,10.1-5.9,13.7c-1.9,1.7-3.9,3-6.1,3.8c-2.3,0.8-4.6,1.2-6.9,1.2
		H75.9v18.8h-8.8V221h24.1c2.4,0,4.7,0.4,6.9,1.3C100.5,223.2,102.5,224.4,104.2,226.1z M91.2,249.6c2.6,0,5-0.9,7-2.7
		c2.1-1.8,3.1-4.2,3.1-7.3c0-3-1-5.5-3.1-7.3s-4.4-2.7-7-2.7H75.9v19.9h15.3C91.2,249.5,91.2,249.6,91.2,249.6z"/>
	<path class="st0" d="M155,277.3c-0.2-3.6-1.3-6.8-3.3-9.5s-5.1-5.8-9.3-9.3h-12.1v18.8h-8.8v-56.2h6.1h2.7h15.3
		c2.3,0,4.7,0.4,7,1.2c2.3,0.9,4.3,2.2,6,3.8c3.9,3.6,5.9,8.2,5.9,13.6c0,5.5-2,10.1-5.9,13.6c-1.2,1.2-2.8,2.3-4.8,3.3
		c1.8,1.8,3.2,3.3,4.2,4.7c3.6,4.6,5.5,9.8,5.8,15.5v0.4L155,277.3L155,277.3z M130.3,249.6h15.3c2.6,0,5-0.9,7-2.7
		c2.1-1.8,3.1-4.2,3.1-7.3c0-3-1-5.5-3-7.2c-2-1.8-4.4-2.6-7.1-2.6h-15.3V249.6z"/>
	<path class="st0" d="M186.2,277.3h-8.8v-56.2h8.8V277.3z"/>
	<path class="st0" d="M235.2,221h8.8v56.3h-9.8l-24.1-40.7v40.7h-8.8V221h4.8h0.1h4.9l24.1,40.8V221z"/>
	<path class="st0" d="M281.8,245.6l21.6,31.6h-10.6L275,251.3c-4.4,4-6.8,7.8-7.1,11.5v14.3h-8.8v-56.3h8.8v25
		c1.4-1.3,3.6-3.2,6.5-5.6c2.2-1.8,3.9-3.3,5.1-4.3c1.1-1.1,2.5-2.4,4-4.1c1.5-1.7,2.7-3.4,3.4-5.2c0.7-1.8,1.2-3.7,1.3-5.7h8.9
		c-0.2,5.5-2.2,10.5-5.8,15.3C289.2,239,286,242.1,281.8,245.6z"/>
	<path class="st0" d="M324,268.5h23.8v8.8h-32.6v-56.2h8.8L324,268.5L324,268.5z"/>
	<path class="st0" d="M369.9,268.4h23.8v8.8h-32.6V221h30.6v8.8h-21.8v13h20.2v8.8h-20.2V268.4z"/>
	<path class="st0" d="M439.8,277.3c-0.2-3.6-1.3-6.8-3.3-9.5s-5.1-5.8-9.3-9.3h-12.1v18.8h-8.8v-56.2h6.1h2.7h15.3
		c2.3,0,4.7,0.4,7,1.2c2.3,0.9,4.3,2.2,6,3.8c3.9,3.6,5.9,8.2,5.9,13.6c0,5.5-2,10.1-5.9,13.6c-1.2,1.2-2.8,2.3-4.8,3.3
		c1.8,1.8,3.2,3.3,4.2,4.7c3.6,4.6,5.5,9.8,5.8,15.5v0.4L439.8,277.3L439.8,277.3z M415.1,249.6h15.3c2.6,0,5-0.9,7-2.7
		c2.1-1.8,3.1-4.2,3.1-7.3c0-3-1-5.5-3-7.2c-2-1.8-4.4-2.6-7.1-2.6h-15.3V249.6z"/>
</g>
<g>
	<path class="st1" d="M70.9,297.5h4.3c4.2,0,6.2,0.7,7.8,2.1c1.9,1.6,2.9,4.2,2.9,7.5c0,3.2-1,5.7-2.9,7.3c-1.6,1.4-3.6,2.1-7.9,2.1
		h-4.3L70.9,297.5L70.9,297.5z M75,314.4c3.7,0,5.2-0.6,6.5-1.8c1.4-1.2,2.1-3.1,2.1-5.6s-0.7-4.4-2.1-5.7c-1.3-1.2-2.7-1.8-6.3-1.8
		h-1.9v14.8H75V314.4z"/>
	<path class="st1" d="M91.7,297.5H94v19h-2.4L91.7,297.5L91.7,297.5z"/>
	<path class="st1" d="M116.8,306.6v10h-2.1v-2.1h-0.2c-1.1,1.2-3.2,2.3-6,2.3c-5.3,0-8.7-3.7-8.7-9.8c0-6,3.3-9.7,8.8-9.7
		c4,0,6.8,1.9,8,5.3l-2.2,0.8c-0.9-2.6-2.9-4-5.8-4c-4,0-6.4,2.8-6.4,7.6c0,4.6,2.3,7.7,6.6,7.7c3.9,0,5.8-2.4,5.9-6h-5.2v-2.1
		L116.8,306.6L116.8,306.6z"/>
	<path class="st1" d="M123.2,297.5h2.4v19h-2.4V297.5z"/>
	<path class="st1" d="M136.9,299.6h-6.4v-2.1h15.2v2.1h-6.4v16.9h-2.4L136.9,299.6L136.9,299.6z"/>
	<path class="st1" d="M157.4,312.1h-8.2l-1.5,4.4h-2.6l6.8-19h2.7l6.8,19h-2.6L157.4,312.1z M156.7,310l-3.3-9.7h-0.2l-3.3,9.7
		H156.7z"/>
	<path class="st1" d="M166.4,297.5h2.4v16.9h8.5v2.1h-10.9V297.5z"/>
	<path class="st1" d="M188.6,311.4l2.3-0.6c0.3,2.5,2.1,3.8,4.4,3.8c2.4,0,3.8-1.4,3.8-3.3c0-4.9-9.5-3.1-9.5-9.1c0-3.1,2.5-5,5.6-5
		c2.3,0,4.3,1,5.5,3.1l-2,1.2c-0.8-1.5-2-2.3-3.6-2.3c-1.8,0-3.1,1.2-3.1,2.8c0,4.2,9.5,2.4,9.5,9c0,3.3-2.5,5.6-6.1,5.6
		C192,316.7,189.2,314.9,188.6,311.4z"/>
	<path class="st1" d="M207,297.5h11.9v2.1h-9.6v6.3h8.7v2.1h-8.7v6.4h10.1v2.1H207V297.5z"/>
	<path class="st1" d="M225,297.5h2.4v16.9h8.5v2.1H225V297.5z"/>
	<path class="st1" d="M240.7,297.5h12.1v2.1H243v6.3h8.5v2.1H243v8.5h-2.4L240.7,297.5L240.7,297.5z"/>
	<path class="st1" d="M266.2,297.5h4.3c4.2,0,6.2,0.7,7.8,2.1c1.9,1.6,2.9,4.2,2.9,7.5c0,3.2-1,5.7-2.9,7.3
		c-1.6,1.4-3.6,2.1-7.9,2.1h-4.3v-19H266.2z M270.2,314.4c3.7,0,5.2-0.6,6.5-1.8c1.4-1.2,2.1-3.1,2.1-5.6s-0.7-4.4-2.1-5.7
		c-1.3-1.2-2.7-1.8-6.3-1.8h-1.9v14.8h1.7L270.2,314.4L270.2,314.4z"/>
	<path class="st1" d="M286.9,297.5h11.9v2.1h-9.6v6.3h8.7v2.1h-8.7v6.4h10.1v2.1h-12.5v-19H286.9z"/>
	<path class="st1" d="M304.9,297.5H317v2.1h-9.8v6.3h8.5v2.1h-8.5v8.5h-2.4L304.9,297.5L304.9,297.5z"/>
	<path class="st1" d="M322.2,297.5h11.9v2.1h-9.6v6.3h8.7v2.1h-8.7v6.4h10.1v2.1h-12.5v-19H322.2z"/>
	<path class="st1" d="M340.1,297.5h3.5l8.3,16h0.2v-16h2.4v19h-3.6l-8.2-16h-0.2v16h-2.4L340.1,297.5L340.1,297.5z"/>
	<path class="st1" d="M359.8,311.4l2.3-0.6c0.3,2.5,2.1,3.8,4.4,3.8c2.4,0,3.8-1.4,3.8-3.3c0-4.9-9.5-3.1-9.5-9.1c0-3.1,2.5-5,5.6-5
		c2.3,0,4.3,1,5.5,3.1l-2,1.2c-0.8-1.5-2-2.3-3.6-2.3c-1.8,0-3.1,1.2-3.1,2.8c0,4.2,9.5,2.4,9.5,9c0,3.3-2.5,5.6-6.1,5.6
		C363.2,316.7,360.4,314.9,359.8,311.4z"/>
	<path class="st1" d="M378.2,297.5h11.9v2.1h-9.6v6.3h8.7v2.1h-8.7v6.4h10.1v2.1h-12.5v-19H378.2z"/>
</g>
<g>
	<path class="st1" d="M230.8,57.8c-0.9,0-1.7-0.1-2.6-0.2v20.5c0.8-0.1,1.7-0.1,2.6-0.1c0.9,0,1.7,0,2.6,0.1V57.7
		C232.5,57.8,231.7,57.8,230.8,57.8z"/>
	<path class="st1" d="M230.8,60.4c-13.1,0-23.7-10.6-23.7-23.7S217.7,13,230.8,13s23.7,10.6,23.7,23.7S243.9,60.4,230.8,60.4z
		 M230.8,18.2c-10.2,0-18.6,8.3-18.6,18.6s8.3,18.6,18.6,18.6s18.6-8.3,18.6-18.6S241,18.2,230.8,18.2z"/>
	<path class="st1" d="M230.8,151.2c0.9,0,1.7,0.1,2.6,0.2v-18.6c-0.8,0.1-1.7,0.1-2.6,0.1c-0.9,0-1.7,0-2.6-0.1v18.6
		C229.1,151.2,229.9,151.2,230.8,151.2z"/>
	<path class="st1" d="M230.8,196c-13.1,0-23.7-10.6-23.7-23.7s10.6-23.7,23.7-23.7s23.7,10.6,23.7,23.7S243.9,196,230.8,196z
		 M230.8,153.7c-10.2,0-18.6,8.3-18.6,18.6s8.3,18.6,18.6,18.6s18.6-8.3,18.6-18.6S241,153.7,230.8,153.7z"/>
	<path class="st1" d="M275.5,73.8l-24,13.8c1.1,1.3,2.1,2.7,3,4.2l23.6-13.6C277.1,76.9,276.2,75.4,275.5,73.8z"/>
	<path class="st1" d="M295,89.2c-13.1,0-23.7-10.6-23.7-23.7s10.6-23.7,23.7-23.7s23.7,10.6,23.7,23.7S308,89.2,295,89.2z M295,47
		c-10.2,0-18.6,8.3-18.6,18.6s8.3,18.6,18.6,18.6s18.6-8.3,18.6-18.6S305.2,47,295,47z"/>
	<path class="st1" d="M278.4,127.1l-24.4-14c-0.6,1.6-1.3,3.2-2.2,4.7l23.9,13.7C276.4,129.9,277.3,128.4,278.4,127.1z"/>
	<path class="st1" d="M295,163.8c-13.1,0-23.7-10.6-23.7-23.7s10.6-23.7,23.7-23.7s23.7,10.6,23.7,23.7S308,163.8,295,163.8z
		 M295,121.6c-10.2,0-18.6,8.3-18.6,18.6s8.3,18.6,18.6,18.6s18.6-8.3,18.6-18.6S305.2,121.6,295,121.6z"/>
	<path class="st1" d="M186.1,73.8c-0.7,1.6-1.6,3.1-2.6,4.4L207,91.9c0.9-1.5,1.9-2.9,3-4.2L186.1,73.8z"/>
	<path class="st1" d="M166.6,89.2c-13.1,0-23.7-10.6-23.7-23.7s10.6-23.7,23.7-23.7s23.7,10.6,23.7,23.7S179.7,89.2,166.6,89.2z
		 M166.6,47c-10.2,0-18.6,8.3-18.6,18.6s8.3,18.6,18.6,18.6s18.6-8.3,18.6-18.6S176.8,47,166.6,47z"/>
	<path class="st1" d="M185.9,131.5l22.3-12.7c-0.9-1.5-1.6-3-2.2-4.7l-22.8,13C184.3,128.4,185.2,129.9,185.9,131.5z"/>
	<path class="st1" d="M166.6,163.8c-13.1,0-23.7-10.6-23.7-23.7s10.6-23.7,23.7-23.7s23.7,10.6,23.7,23.7S179.7,163.8,166.6,163.8z
		 M166.6,121.6c-10.2,0-18.6,8.3-18.6,18.6s8.3,18.6,18.6,18.6s18.6-8.3,18.6-18.6S176.8,121.6,166.6,121.6z"/>
	<g>
		<path class="st1" d="M188.3,56l20.1-11.6c-0.6-1.7-1-3.4-1.2-5.3l-21.5,12.4C186.7,52.9,187.6,54.4,188.3,56z"/>
		<path class="st1" d="M295,89.2c-0.9,0-1.7-0.1-2.6-0.1v27.5c0.8-0.1,1.7-0.1,2.6-0.1s1.7,0.1,2.6,0.1V89.1
			C296.7,89.2,295.8,89.2,295,89.2z"/>
		<path class="st1" d="M253.2,44.4L273.3,56c0.7-1.6,1.6-3.1,2.6-4.4l-21.5-12.4C254.2,41,253.8,42.7,253.2,44.4z"/>
		<path class="st1" d="M273.1,149.3l-21.2,12.2c0.8,1.5,1.4,3.2,1.8,4.9l21.9-12.6C274.6,152.4,273.8,150.9,273.1,149.3z"/>
		<path class="st1" d="M209.7,161.6l-21.2-12.2c-0.7,1.6-1.5,3.1-2.5,4.5l21.9,12.6C208.3,164.7,208.9,163.1,209.7,161.6z"/>
		<path class="st1" d="M166.6,116.4c0.9,0,1.7,0.1,2.6,0.1V89.1c-0.8,0.1-1.7,0.1-2.6,0.1s-1.7-0.1-2.6-0.1v27.5
			C164.9,116.5,165.7,116.4,166.6,116.4z"/>
	</g>
	<g>
		<path class="st1" d="M256.7,85.1l-25.5-11.2c-0.3-0.1-0.6-0.1-0.8,0l-25.5,11.2c-0.4,0.2-0.6,0.5-0.6,0.9v18.5
			c0,12.2,7,23.2,18,28.5l8.1,3.9c0.3,0.1,0.6,0.1,0.9,0l8.1-3.9c10.9-5.3,17.9-16.4,18-28.5V86.1C257.3,85.7,257.1,85.3,256.7,85.1
			z M250.5,104.7c0,9.3-5.4,17.8-13.7,21.8l-5.6,2.7c-0.2,0.1-0.5,0.1-0.8,0l-5.6-2.7c-8.4-4.1-13.7-12.5-13.7-21.8V90.8
			c0-0.4,0.2-0.7,0.5-0.8l18.8-8.3c0.2-0.1,0.5-0.1,0.7,0l18.8,8.3c0.3,0.1,0.5,0.5,0.5,0.8v13.9
			C250.4,104.7,250.5,104.7,250.5,104.7z"/>
	</g>
	<path class="st0" d="M250,89.9c0.3,0.1,0.5,0.5,0.5,0.8v13.9c0,9.3-5.4,17.8-13.7,21.8l-5.6,2.7v7.8l0,0l8.1-3.9
		c10.9-5.3,17.9-16.4,18-28.5V86.1c0-0.4-0.2-0.8-0.6-0.9L231.2,74v7.8L250,89.9z"/>
</g>
<g>
	<path class="st2" d="M-211.4,27.1c-0.9,0-1.7-0.1-2.6-0.2v20.5c0.8-0.1,1.7-0.1,2.6-0.1c0.9,0,1.7,0,2.6,0.1V27
		C-209.7,27.1-210.5,27.1-211.4,27.1z"/>
	<path class="st2" d="M-211.4,29.7c-13.1,0-23.7-10.6-23.7-23.7s10.6-23.7,23.7-23.7S-187.7-7.1-187.7,6S-198.3,29.7-211.4,29.7z
		 M-211.4-12.5c-10.2,0-18.6,8.3-18.6,18.6s8.3,18.6,18.6,18.6s18.6-8.3,18.6-18.6S-201.2-12.5-211.4-12.5z"/>
	<path class="st2" d="M-211.4,120.5c0.9,0,1.7,0.1,2.6,0.2v-18.6c-0.8,0.1-1.7,0.1-2.6,0.1c-0.9,0-1.7,0-2.6-0.1v18.6
		C-213.1,120.5-212.3,120.5-211.4,120.5z"/>
	<path class="st2" d="M-211.4,165.3c-13.1,0-23.7-10.6-23.7-23.7s10.6-23.7,23.7-23.7s23.7,10.6,23.7,23.7S-198.3,165.3-211.4,165.3
		z M-211.4,123c-10.2,0-18.6,8.3-18.6,18.6s8.3,18.6,18.6,18.6s18.6-8.3,18.6-18.6S-201.2,123-211.4,123z"/>
	<path class="st2" d="M-166.7,43.1l-24,13.8c1.1,1.3,2.1,2.7,3,4.2l23.6-13.6C-165.1,46.2-166,44.7-166.7,43.1z"/>
	<path class="st2" d="M-147.2,58.5c-13.1,0-23.7-10.6-23.7-23.7s10.6-23.7,23.7-23.7s23.7,10.6,23.7,23.7S-134.2,58.5-147.2,58.5z
		 M-147.2,16.3c-10.2,0-18.6,8.3-18.6,18.6s8.3,18.6,18.6,18.6s18.6-8.3,18.6-18.6S-137,16.3-147.2,16.3z"/>
	<path class="st2" d="M-163.8,96.4l-24.4-14c-0.6,1.6-1.3,3.2-2.2,4.7l23.9,13.7C-165.8,99.2-164.9,97.7-163.8,96.4z"/>
	<path class="st2" d="M-147.2,133.1c-13.1,0-23.7-10.6-23.7-23.7s10.6-23.7,23.7-23.7s23.7,10.6,23.7,23.7S-134.2,133.1-147.2,133.1
		z M-147.2,90.9c-10.2,0-18.6,8.3-18.6,18.6s8.3,18.6,18.6,18.6s18.6-8.3,18.6-18.6S-137,90.9-147.2,90.9z"/>
	<path class="st2" d="M-256.1,43.1c-0.7,1.6-1.6,3.1-2.6,4.4l23.5,13.7c0.9-1.5,1.9-2.9,3-4.2L-256.1,43.1z"/>
	<path class="st2" d="M-275.6,58.5c-13.1,0-23.7-10.6-23.7-23.7s10.6-23.7,23.7-23.7c13.1,0,23.7,10.6,23.7,23.7
		S-262.5,58.5-275.6,58.5z M-275.6,16.3c-10.2,0-18.6,8.3-18.6,18.6s8.3,18.6,18.6,18.6c10.3,0,18.6-8.3,18.6-18.6
		S-265.4,16.3-275.6,16.3z"/>
	<path class="st2" d="M-256.3,100.8l22.3-12.7c-0.9-1.5-1.6-3-2.2-4.7l-22.8,13C-257.9,97.7-257,99.2-256.3,100.8z"/>
	<path class="st2" d="M-275.6,133.1c-13.1,0-23.7-10.6-23.7-23.7s10.6-23.7,23.7-23.7c13.1,0,23.7,10.6,23.7,23.7
		S-262.5,133.1-275.6,133.1z M-275.6,90.9c-10.2,0-18.6,8.3-18.6,18.6s8.3,18.6,18.6,18.6c10.3,0,18.6-8.3,18.6-18.6
		S-265.4,90.9-275.6,90.9z"/>
	<g>
		<path class="st2" d="M-253.9,25.3l20.1-11.6c-0.6-1.7-1-3.4-1.2-5.3l-21.5,12.4C-255.5,22.2-254.6,23.7-253.9,25.3z"/>
		<path class="st2" d="M-147.2,58.5c-0.9,0-1.7-0.1-2.6-0.1v27.5c0.8-0.1,1.7-0.1,2.6-0.1s1.7,0.1,2.6,0.1V58.4
			C-145.5,58.5-146.4,58.5-147.2,58.5z"/>
		<path class="st2" d="M-189,13.7l20.1,11.6c0.7-1.6,1.6-3.1,2.6-4.4l-21.5-12.4C-188,10.3-188.4,12-189,13.7z"/>
		<path class="st2" d="M-169.1,118.6l-21.2,12.2c0.8,1.5,1.4,3.2,1.8,4.9l21.9-12.6C-167.6,121.7-168.4,120.2-169.1,118.6z"/>
		<path class="st2" d="M-232.5,130.9l-21.2-12.2c-0.7,1.6-1.5,3.1-2.5,4.5l21.9,12.6C-233.9,134-233.3,132.4-232.5,130.9z"/>
		<path class="st2" d="M-275.6,85.7c0.9,0,1.7,0.1,2.6,0.1V58.4c-0.8,0.1-1.7,0.1-2.6,0.1c-0.9,0-1.7-0.1-2.6-0.1v27.5
			C-277.3,85.8-276.5,85.7-275.6,85.7z"/>
	</g>
	<g>
		<path class="st2" d="M-185.5,54.4L-211,43.2c-0.3-0.1-0.6-0.1-0.8,0l-25.5,11.2c-0.4,0.2-0.6,0.5-0.6,0.9v18.5
			c0,12.2,7,23.2,18,28.5l8.1,3.9c0.3,0.1,0.6,0.1,0.9,0l8.1-3.9c10.9-5.3,17.9-16.4,18-28.5V55.4C-184.9,55-185.1,54.6-185.5,54.4z
			 M-191.7,74c0,9.3-5.4,17.8-13.7,21.8l-5.6,2.7c-0.2,0.1-0.5,0.1-0.8,0l-5.6-2.7c-8.4-4.1-13.7-12.5-13.7-21.8V60.1
			c0-0.4,0.2-0.7,0.5-0.8l18.8-8.3c0.2-0.1,0.5-0.1,0.7,0l18.8,8.3c0.3,0.1,0.5,0.5,0.5,0.8V74C-191.8,74-191.7,74-191.7,74z"/>
	</g>
	<path class="st2" d="M-192.2,59.2c0.3,0.1,0.5,0.5,0.5,0.8v13.9c0,9.3-5.4,17.8-13.7,21.8l-5.6,2.7v7.8l0,0l8.1-3.9
		c10.9-5.3,17.9-16.4,18-28.5V55.4c0-0.4-0.2-0.8-0.6-0.9L-211,43.3v7.8L-192.2,59.2z"/>
</g>
</svg>
